<svg xmlns="http://www.w3.org/2000/svg" viewBox="0 0 211.85 83.14"><defs><style>.cls-1{fill:#e50e19;}.cls-2{fill:#98181f;}.cls-3{fill:#026198;}.cls-4{fill:#fff;}.cls-5{fill:#026199;}.cls-6{fill:#e60e19;}</style></defs><g id="Nose"><path class="cls-1" d="M140.59,33.86a10.58,10.58,0,0,0,7.54-2.66A9.34,9.34,0,0,0,151,24.06a9.73,9.73,0,0,0-2.79-7.28,10.17,10.17,0,0,0-7.43-2.73,10.37,10.37,0,0,0-7.6,2.83,10,10,0,0,0-2.9,7.46,9,9,0,0,0,2.83,6.93A10.68,10.68,0,0,0,140.59,33.86Z"/></g><g id="Logo_Text" data-name="Logo Text"><path class="cls-2" d="M20.64,76.75c.83,0,1.24-1.09,1.24-3.26V60.19c0-2.14-.41-3.21-1.24-3.21a5.23,5.23,0,0,0-1.09.16,4.74,4.74,0,0,1-1.13.17,2.16,2.16,0,0,1-1.77-.91,3.94,3.94,0,0,1,.2-4.8,3.19,3.19,0,0,1,2.4-1c.53,0,1.6.1,3.23.29a25.85,25.85,0,0,0,3.09.19c.37,0,1.23,0,2.59-.14l3.36-.24c.9-.07,1.77-.1,2.63-.1q8.35,0,12,7.34a20.55,20.55,0,0,1,.09,17.62A13.15,13.15,0,0,1,41,81.46a13.67,13.67,0,0,1-6.83,1.63c-1.05,0-1.94,0-2.68-.1l-3.36-.29c-.74-.06-1.6-.09-2.59-.09a29.28,29.28,0,0,0-3.09.14l-1.84.19a12.92,12.92,0,0,1-1.39.15,3.19,3.19,0,0,1-2.4-1,3.94,3.94,0,0,1-.2-4.8,2.16,2.16,0,0,1,1.77-.91,5.68,5.68,0,0,1,1.16.16A4.89,4.89,0,0,0,20.64,76.75Zm12-20a3.14,3.14,0,0,0-2.1.51,2.77,2.77,0,0,0-.53,2V74.4a2.91,2.91,0,0,0,.53,2,3.08,3.08,0,0,0,2.1.52,6.16,6.16,0,0,0,4.57-2.16q2.36-2.53,2.35-7.53c0-3.75-.78-6.51-2.35-8.31a6.46,6.46,0,0,0-2.31-1.72A5.91,5.91,0,0,0,32.63,56.78Z"/><path class="cls-2" d="M67.13,56.69a4.59,4.59,0,0,0-2,.29q-.69.42-.69,1.92v2.68a2.78,2.78,0,0,0,.21,1.23c.14.27.5.41,1.08.41,1.36,0,2-.52,2-1.54v-.62a5,5,0,0,1,0-.72c0-1.35.75-2,2.26-2s2.35.82,2.35,2.45a13.76,13.76,0,0,1-.09,1.49A26.07,26.07,0,0,0,72,65.18c0,.84.07,1.89.19,3.17s.18,2.18.18,2.69c0,1.89-.81,2.83-2.44,2.83s-2.31-.81-2.31-2.45v-.24c0-.16,0-.54.09-1.15,0-.77-.66-1.15-2-1.15-.89,0-1.34.51-1.34,1.54V74A3.31,3.31,0,0,0,65,76.3a2.94,2.94,0,0,0,2.14.6h2.68a11.24,11.24,0,0,0,4.13-.53,1.89,1.89,0,0,0,1.17-1.87A11.38,11.38,0,0,0,75,72.89a10.12,10.12,0,0,1-.14-1.56,3.85,3.85,0,0,1,1-2.79,3.47,3.47,0,0,1,2.63-1q3.36,0,3.36,3.84A24.63,24.63,0,0,1,81.66,74c-.15,1.53-.23,2.49-.23,2.88A18,18,0,0,0,81.66,79a11.51,11.51,0,0,1,.14,1.87c0,1.51-.9,2.26-2.72,2.26-.58,0-1.55,0-2.9-.15q-3.37-.24-10.75-.33H61.32c-1.54,0-2.81,0-3.83.14l-3.5.34a.57.57,0,0,0-.19,0h-.23a3,3,0,0,1-2.33-1,3.68,3.68,0,0,1-.9-2.55,3.53,3.53,0,0,1,.72-2.25,2.2,2.2,0,0,1,1.82-.91,5.47,5.47,0,0,1,1.11.16,4.89,4.89,0,0,0,1.06.17c.83,0,1.24-1.09,1.24-3.26V60.19c0-2.14-.41-3.21-1.24-3.21a5.89,5.89,0,0,0-1.11.19,4.91,4.91,0,0,1-1.06.14,2.23,2.23,0,0,1-1.8-.91,3.49,3.49,0,0,1-.74-2.26c0-2.33,1.13-3.5,3.37-3.5.52,0,1.58.06,3.18.19q3.6.29,7,.29L69.4,51c2.52-.07,4.18-.13,5-.2,1.32-.09,2.7-.14,4.15-.14,1.72,0,2.58.78,2.58,2.35A22,22,0,0,1,81,55.25a21.84,21.84,0,0,0-.16,2.25A16.06,16.06,0,0,0,81,59.69a17.19,17.19,0,0,1,.2,2.13,3.16,3.16,0,0,1-1,2.36,3.4,3.4,0,0,1-2.47,1c-2.3,0-3.46-1.24-3.46-3.7a9.89,9.89,0,0,1,.21-1.73,9.67,9.67,0,0,0,.21-1.63,1.22,1.22,0,0,0-1.06-1.3,11.76,11.76,0,0,0-1.94-.09Z"/><path class="cls-2" d="M97.53,58.9l4.15,15.45,4.39-15.45a5.25,5.25,0,0,0,.23-1.16c0-.54-.25-.8-.74-.76l-.65,0h-.09c-1.41,0-2.12-1-2.12-2.88q0-3.49,3-3.5a24.68,24.68,0,0,1,2.86.24,24.68,24.68,0,0,0,2.86.24,16.89,16.89,0,0,0,2.68-.19,19.05,19.05,0,0,1,2.62-.29,3,3,0,0,1,2.31.94,3.37,3.37,0,0,1,.88,2.42,4,4,0,0,1-.67,2.35,2,2,0,0,1-1.64,1,3.41,3.41,0,0,1-.92-.17,3.72,3.72,0,0,0-.79-.16q-1.09,0-2.39,4.12l-5.63,17.81q-1.25,3.95-3.65,3.94c-.3,0-.76,0-1.38-.07s-1.08-.08-1.38-.08-.76,0-1.34.08-1,.07-1.34.07q-2.45,0-4.15-5.57l-5.49-18C88.6,57.76,88,57,87.43,57a2.93,2.93,0,0,0-.85.16,3.23,3.23,0,0,1-1,.17,1.9,1.9,0,0,1-1.64-.89,3.91,3.91,0,0,1-.62-2.28q0-3.49,3.37-3.5a24.7,24.7,0,0,1,2.81.24,24.68,24.68,0,0,0,2.86.24,23.47,23.47,0,0,0,3.14-.24,21.06,21.06,0,0,1,2.44-.24q3,0,3,3.55c0,1.89-.64,2.83-1.9,2.83h-.46a1.44,1.44,0,0,0-.41,0,.72.72,0,0,0-.83.81A4.49,4.49,0,0,0,97.53,58.9Z"/><path class="cls-3" d="M26.17,44.43v-2.8q-4.07,7.07-11.5,7.07A13.15,13.15,0,0,1,4.09,43.8Q0,38.9,0,31.13q0-8,4.36-13.23a13.69,13.69,0,0,1,11-5.25q7.71,0,10.82,6.93V10.41q0-7-.48-8c-.32-.65-1.07-1-2.26-1-.5,0-1.27.05-2.32.14s-1.73.14-2.05.14c-.87,0-1.3-.28-1.3-.84s.38-.84,1.15-.84h7.52a1.55,1.55,0,0,1,1.05.28,2.13,2.13,0,0,1,.3,1.41V37.6c0,4.73.16,7.42.47,8s1.06,1,2.22,1a18.38,18.38,0,0,0,2.22-.28c1.17-.19,1.84-.28,2-.28.9,0,1.35.3,1.35.91s-.38.91-1.13.91H27.5a1.05,1.05,0,0,1-1-.6A8,8,0,0,1,26.17,44.43Zm0-12.74v-.91q0-8.12-1.82-11.55-2.76-5.18-9.21-5.18a11.53,11.53,0,0,0-9.49,4.86A19.5,19.5,0,0,0,1.88,31.2q0,7.06,3.6,11.58A11.38,11.38,0,0,0,14.8,47.3a10.32,10.32,0,0,0,8.07-3.64A12.06,12.06,0,0,0,25.46,39,28.61,28.61,0,0,0,26.17,31.69Z"/><path class="cls-3" d="M66.73,19.86a24,24,0,0,1-4.37,2q11,2.31,11,12.88,0,6.72-4.44,10.22-3.69,2.94-10.83,2.94c-1.61,0-3.47,0-5.58-.14l-4.64-.21c-2-.09-3.39-.14-4.1-.14H41.84c-.76,0-1.93.08-3.5.24s-2.71.25-3.43.25h-.27q-1.41,0-1.41-.81c0-.67.49-1,1.48-1l1.62.14c1,.09,1.74.14,2.15.14a2.7,2.7,0,0,0,2.69-1.4,8.89,8.89,0,0,0,.54-3.36V7.05a10.54,10.54,0,0,0-.47-3.36,2.85,2.85,0,0,0-2.76-1.4c-.36,0-1.08,0-2.15.14-.54,0-1.08.07-1.62.07-1,0-1.48-.3-1.48-.91S33.7.68,34.64.68h.27l1.48.14A25.25,25.25,0,0,1,39.12,1a24.93,24.93,0,0,0,2.72.21h1.89c.67,0,2.53-.09,5.58-.28S55,.68,57.18.68q6.72,0,10,2.24a9.34,9.34,0,0,1,4.17,8.19Q71.37,17.07,66.73,19.86Zm-23-1.68c0,1.68.42,2.66,1.27,2.94a8,8,0,0,0,2.16.21h6.18a61.53,61.53,0,0,0,6.33-.21,13.05,13.05,0,0,0,5.92-2.24,8.53,8.53,0,0,0,3.7-7.42A8.27,8.27,0,0,0,65.39,4Q62.69,2.29,57,2.29c-2,0-3.95,0-5.79.14L47,2.64c-1.52.09-2.45.34-2.79.73s-.5,1.53-.5,3.4Zm.06,24.36c0,1.49.34,2.43,1,2.8a8.59,8.59,0,0,0,3.3.56l4.3.28c1.44.09,2.69.14,3.77.14A42.38,42.38,0,0,0,62,46a11,11,0,0,0,5.32-2.31q3.9-3.36,3.9-9.31,0-9.74-9.49-11.27a42.73,42.73,0,0,0-6.86-.49H53.61a13.25,13.25,0,0,1-1.34.14H48a17,17,0,0,0-2,.07,2.68,2.68,0,0,0-1.74.56,2.9,2.9,0,0,0-.47,1.47Z"/><path class="cls-3" d="M110.05,44V41.35a13.49,13.49,0,0,1-2.76,3.92,12.77,12.77,0,0,1-9.14,3.43q-6.6,0-9.69-3.85a11.17,11.17,0,0,1-2.22-5.11A42.47,42.47,0,0,1,86,34V23.78q0-6.3-.41-7.63c-.27-.89-1.06-1.33-2.37-1.33A20.08,20.08,0,0,0,81,15c-1.18.14-1.83.21-2,.21-.86,0-1.29-.33-1.29-1s.34-.84,1-.84H79l1.89.21h3.9l.67-.07,1.08-.14c.81,0,1.21.86,1.21,2.59V34.21a29.92,29.92,0,0,0,.34,5.39,8.83,8.83,0,0,0,2.22,4.69c1.83,2,4.48,3,7.93,3q6.87,0,9.76-5,2.09-3.57,2.08-10.64V23.78c0-4.71-.17-7.39-.51-8s-1.08-.94-2.22-.94a20.87,20.87,0,0,0-2.26.14l-2,.21c-.87,0-1.3-.3-1.3-.91s.36-.91,1.07-.91h.21l1.81.21h3.37a6.34,6.34,0,0,0,1.41-.11,3.46,3.46,0,0,1,.87-.1c.86,0,1.28.93,1.28,2.8V37.5q0,7.06.47,8c.32.63,1.06,1,2.22,1l2.16-.07a10.66,10.66,0,0,1,2.08-.28c.85,0,1.28.3,1.28.91s-.4.91-1.21.91h-.14l-2-.14-1.54-.07h-.81a1.91,1.91,0,0,0-.67.21h-2a1.39,1.39,0,0,1-1.34-.6,5.41,5.41,0,0,1-.34-2.37Z"/><path class="cls-3" d="M140.53,35.26a13.19,13.19,0,0,1-10-3.92h-.4a3.61,3.61,0,0,0-2.63,1,3.5,3.5,0,0,0-1,2.61q0,4.94,9,5.08h4.77q8.15.13,12,1.75,5.91,2.52,5.92,8.47a8.74,8.74,0,0,1-4.51,7.91q-4.5,2.73-13.05,2.73t-13-2.7A8.43,8.43,0,0,1,123,50.52Q123,44,131.31,41q-6.66-1.05-6.66-6.16,0-4,4.84-5.25a12.14,12.14,0,0,1-1.14-5A11.39,11.39,0,0,1,131.81,16a12.1,12.1,0,0,1,8.78-3.36A15.67,15.67,0,0,1,148.46,15a9,9,0,0,1-.27-1.89,5.15,5.15,0,0,1,1.79-4,6.44,6.44,0,0,1,4.47-1.61,5.43,5.43,0,0,1,3.77,1.33,4.35,4.35,0,0,1,1.48,3.36,3.65,3.65,0,0,1-.84,2.41,2.57,2.57,0,0,1-2.05,1,1.85,1.85,0,0,1-2.09-2.1c0-1.31.56-2,1.68-2a6.05,6.05,0,0,1,.61.14c-.09,0,0,0,.33.07s.47-.19.47-.56a1.77,1.77,0,0,0-1-1.47,4.17,4.17,0,0,0-2.32-.63,4.66,4.66,0,0,0-3.43,1.26,4.51,4.51,0,0,0-1.28,3.36,5.12,5.12,0,0,0,.54,2.24l1.34,2.8a11.88,11.88,0,0,1,1.15,5.25,10.45,10.45,0,0,1-3.4,8.12A12.79,12.79,0,0,1,140.53,35.26Zm.33,24.22q7.33,0,11.4-2.38a7.42,7.42,0,0,0,4.07-6.72q0-9-16.41-9-7.2,0-11.13,2.38a7.51,7.51,0,0,0-3.94,6.79A7.2,7.2,0,0,0,129,57.17Q133.13,59.48,140.86,59.48Zm-.27-25.62a10.58,10.58,0,0,0,7.54-2.66A9.34,9.34,0,0,0,151,24.06a9.73,9.73,0,0,0-2.79-7.28,10.17,10.17,0,0,0-7.43-2.73,10.37,10.37,0,0,0-7.6,2.83,10,10,0,0,0-2.9,7.46,8.94,8.94,0,0,0,2.83,6.93A10.68,10.68,0,0,0,140.59,33.86Z"/><path class="cls-3" d="M179.74,35.26a13.18,13.18,0,0,1-10-3.92h-.41a3.58,3.58,0,0,0-2.62,1,3.5,3.5,0,0,0-1,2.61q0,4.94,9,5.08h4.77q8.15.13,12,1.75,5.91,2.52,5.92,8.47a8.74,8.74,0,0,1-4.51,7.91q-4.52,2.73-13.05,2.73t-13-2.7a8.41,8.41,0,0,1-4.64-7.66q0-6.51,8.34-9.52-6.66-1.05-6.66-6.16,0-4,4.84-5.25a12.14,12.14,0,0,1-1.14-5A11.39,11.39,0,0,1,171,16a12.1,12.1,0,0,1,8.78-3.36A15.67,15.67,0,0,1,187.68,15a9,9,0,0,1-.27-1.89,5.15,5.15,0,0,1,1.79-4,6.42,6.42,0,0,1,4.47-1.61,5.43,5.43,0,0,1,3.77,1.33,4.35,4.35,0,0,1,1.48,3.36,3.65,3.65,0,0,1-.84,2.41,2.59,2.59,0,0,1-2.06,1,1.85,1.85,0,0,1-2.08-2.1c0-1.31.56-2,1.68-2l.61.14c-.1,0,0,0,.33.07s.47-.19.47-.56a1.77,1.77,0,0,0-1-1.47,4.2,4.2,0,0,0-2.32-.63,4.66,4.66,0,0,0-3.43,1.26A4.48,4.48,0,0,0,189,13.77a5.12,5.12,0,0,0,.54,2.24l1.34,2.8a12,12,0,0,1,1.14,5.25,10.44,10.44,0,0,1-3.39,8.12A12.8,12.8,0,0,1,179.74,35.26Zm.34,24.22q7.33,0,11.4-2.38a7.42,7.42,0,0,0,4.07-6.72q0-9-16.41-9-7.2,0-11.13,2.38a7.51,7.51,0,0,0-3.94,6.79,7.2,7.2,0,0,0,4.14,6.58Q172.35,59.48,180.08,59.48Zm-.27-25.62a10.58,10.58,0,0,0,7.54-2.66,9.34,9.34,0,0,0,2.82-7.14,9.73,9.73,0,0,0-2.79-7.28A10.17,10.17,0,0,0,180,14.05a10.41,10.41,0,0,0-7.61,2.83,10,10,0,0,0-2.89,7.46,8.94,8.94,0,0,0,2.83,6.93A10.68,10.68,0,0,0,179.81,33.86Z"/></g><g id="Hat_white_blockout" data-name="Hat white blockout"><path class="cls-4" d="M199.59,23.76a7.84,7.84,0,0,0,.87,1.61,1.72,1.72,0,0,1,.43,1.23c0,.06.07.16.13.2L203.24,28a1.39,1.39,0,0,1-1.3-.23,5.66,5.66,0,0,1-1.85-1.69c-.94-1.34-1.91-2.65-2.79-4-.49-.76-.82-1.63-1.24-2.44-.68-1.31-1.4-2.59-2.05-3.92-.4-.82-.67-1.7-1-2.53-.58-1.29-1.21-2.56-1.81-3.84a21.81,21.81,0,0,1-2.09-5.54,6.88,6.88,0,0,1,0-3.19.84.84,0,0,1,.54-.63c-.06.29-.08.52-.15.74a4.66,4.66,0,0,0,1,4.6l.44.52c0-.05.41-.05.53-.33.27-.63,1.78-1.89,2.84-1,.05.11.43,0,.53.17a5.13,5.13,0,0,0,1.15,0A5.61,5.61,0,0,0,198.73,3a15.5,15.5,0,0,0,1.07-1.42A2.89,2.89,0,0,1,202.22.32a2,2,0,0,1,1.41.63,19.41,19.41,0,0,1,1.51,1.88,1.07,1.07,0,0,1,.17.7c-.07.91-.17,1.82-.3,2.72a8.49,8.49,0,0,0,.24,3.4,2.4,2.4,0,0,0,.33.58c.19.29.58.45.58.88,0,.06.13.12.21.17.66.38,1.33.74,2,1.15a17,17,0,0,1,1.95,1.42,4.29,4.29,0,0,1,1.55,2.72,2.14,2.14,0,0,1-1.6,2.34c-.47.13-1,.22-1.43.33a14,14,0,0,0-3.29,1.39l-.41.2-1.62.82Z"/></g><g id="Hat"><path class="cls-4" d="M203.49,21.65l1.62-.82.41-.2a14,14,0,0,1,3.29-1.39c.47-.11,1-.2,1.43-.33a2.14,2.14,0,0,0,1.6-2.34,4.29,4.29,0,0,0-1.55-2.72,17,17,0,0,0-1.95-1.42c-.64-.41-1.31-.77-2-1.15-.08,0-.21-.11-.21-.17,0-.43-.39-.59-.58-.88a2.4,2.4,0,0,1-.33-.58,8.49,8.49,0,0,1-.24-3.4c.13-.9.23-1.81.3-2.72a1.07,1.07,0,0,0-.17-.7A19.41,19.41,0,0,0,203.63,1a2,2,0,0,0-1.41-.63,2.89,2.89,0,0,0-2.42,1.27A15.5,15.5,0,0,1,198.73,3a5.61,5.61,0,0,1-2.79,1.69,7.12,7.12,0,0,1-1.15,0,9.29,9.29,0,0,0,2.11,1.42l-.87.16.12.21a20.31,20.31,0,0,1,2.22,3.62,24.66,24.66,0,0,0,2.11,3.52,5.34,5.34,0,0,1,1,2c.33,1.26.7,2.51,1.1,3.74C202.84,20.2,203.2,20.93,203.49,21.65Zm-.34.42c-.24-.53-.52-1-.7-1.55-.48-1.46-.9-2.94-1.37-4.4a5.78,5.78,0,0,0-.76-1.8,43.78,43.78,0,0,1-3.06-5.16c-.54-.94-1.17-1.85-1.76-2.76L193,7.7l.68,1.44c.49,1.09,1,2.19,1.47,3.26.66,1.36,1.38,2.69,2,4.06.72,1.58,1.38,3.18,2,4.78.32.78.57,1.58.86,2.39Zm.09,6L201,26.8c-.06,0-.14-.14-.13-.2a1.72,1.72,0,0,0-.43-1.23,7.61,7.61,0,0,1-1.07-2.2c-.24-.82-.54-1.62-.86-2.42a76.47,76.47,0,0,0-3.19-7c-.57-1.08-1.11-2.19-1.64-3.3-.27-.57-.42-1.19-.71-1.75a11.14,11.14,0,0,0-1-1.59c-.47-.63-1-1.21-1.5-1.81a4.66,4.66,0,0,1-1-4.6c.07-.22.09-.45.15-.74a.84.84,0,0,0-.54.63,6.88,6.88,0,0,0,0,3.19,21.81,21.81,0,0,0,2.09,5.54c.6,1.28,1.23,2.55,1.81,3.84.37.83.64,1.71,1,2.53.65,1.33,1.37,2.61,2.05,3.92.42.81.75,1.68,1.24,2.44.88,1.37,1.85,2.68,2.79,4a5.66,5.66,0,0,0,1.85,1.69A1.39,1.39,0,0,0,203.24,28ZM192,6.25c.16.26.34.5.48.76s.23.2.42.16a14.47,14.47,0,0,0,2.53-1.24l-1-.83C193.51,6,193.41,6,192,6.25Zm1.72-1.79A2.06,2.06,0,0,0,192,5.2c-.08.11-.17.32-.12.4a.52.52,0,0,0,.4.15A2.2,2.2,0,0,0,193.81,5a.62.62,0,0,0,.14-.43C194,4.53,193.72,4.48,193.68,4.46Z"/><path class="cls-5" d="M203.49,21.65c-.29-.72-.65-1.45-.9-2.21-.4-1.23-.77-2.48-1.1-3.74a5.34,5.34,0,0,0-1-2,24.66,24.66,0,0,1-2.11-3.52,20.31,20.31,0,0,0-2.22-3.62L196,6.33l.87-.16a9.29,9.29,0,0,1-2.11-1.42,7.12,7.12,0,0,0,1.15,0A5.61,5.61,0,0,0,198.73,3a15.5,15.5,0,0,0,1.07-1.42A2.89,2.89,0,0,1,202.22.32a2,2,0,0,1,1.41.63,19.41,19.41,0,0,1,1.51,1.88,1.07,1.07,0,0,1,.17.7c-.07.91-.17,1.82-.3,2.72a8.49,8.49,0,0,0,.24,3.4,2.4,2.4,0,0,0,.33.58c.19.29.58.45.58.88,0,.06.13.12.21.17.66.38,1.33.74,2,1.15a17,17,0,0,1,1.95,1.42,4.29,4.29,0,0,1,1.55,2.72,2.14,2.14,0,0,1-1.6,2.34c-.47.13-1,.22-1.43.33a14,14,0,0,0-3.29,1.39l-.41.2Zm-.21-17.13c-.16.18-.26.28-.35.4a4.92,4.92,0,0,1-2.17,1.73,2.52,2.52,0,0,1-2.61-.31c-.17-.14-.32-.3-.49-.46A1.21,1.21,0,0,0,198.15,7a4.24,4.24,0,0,0,4.16.44,1.55,1.55,0,0,0,.92-1.09A17.12,17.12,0,0,0,203.28,4.52Zm.85,14.23a1.54,1.54,0,0,0,0-.2,2.24,2.24,0,0,1,1.1-2.66,5,5,0,0,1,2.42-.74c.31,0,.63,0,1,0l0-.09c-.39-.27-.8-.52-1.18-.8A1.46,1.46,0,0,0,206,14a3.32,3.32,0,0,0-1.38,1,3.78,3.78,0,0,0-1.06,2.5A1.39,1.39,0,0,0,204.13,18.75Z"/><path class="cls-6" d="M203.15,22.07l-3.05,1.56c-.29-.81-.54-1.61-.86-2.39-.66-1.6-1.32-3.2-2-4.78-.63-1.37-1.35-2.7-2-4.06-.51-1.07-1-2.17-1.47-3.26L193,7.7l2.46-1.3c.59.91,1.22,1.82,1.76,2.76a43.78,43.78,0,0,0,3.06,5.16,5.78,5.78,0,0,1,.76,1.8c.47,1.46.89,2.94,1.37,4.4C202.63,21,202.91,21.54,203.15,22.07Z"/><path class="cls-5" d="M203.24,28a1.39,1.39,0,0,1-1.3-.23,5.66,5.66,0,0,1-1.85-1.69c-.94-1.34-1.91-2.65-2.79-4-.49-.76-.82-1.63-1.24-2.44-.68-1.31-1.4-2.59-2.05-3.92-.4-.82-.67-1.7-1-2.53-.58-1.29-1.21-2.56-1.81-3.84a21.81,21.81,0,0,1-2.09-5.54,6.88,6.88,0,0,1,0-3.19.84.84,0,0,1,.54-.63c-.06.29-.08.52-.15.74a4.66,4.66,0,0,0,1,4.6c.49.6,1,1.18,1.5,1.81a11.14,11.14,0,0,1,1,1.59c.29.56.44,1.18.71,1.75.53,1.11,1.07,2.22,1.64,3.3a76.47,76.47,0,0,1,3.19,7c.32.8.62,1.6.86,2.42a7.61,7.61,0,0,0,1.07,2.2,1.72,1.72,0,0,1,.43,1.23c0,.06.07.16.13.2Z"/><path class="cls-6" d="M192,6.25c1.45-.21,1.55-.25,2.4-1.15l1,.83a14.47,14.47,0,0,1-2.53,1.24c-.19,0-.31,0-.42-.16S192.12,6.51,192,6.25Z"/><path class="cls-6" d="M193.68,4.46s.27.07.27.13a.62.62,0,0,1-.14.43,2.2,2.2,0,0,1-1.57.73.52.52,0,0,1-.4-.15c-.05-.08,0-.29.12-.4A2.06,2.06,0,0,1,193.68,4.46Z"/><path class="cls-4" d="M203.28,4.52a17.12,17.12,0,0,1-.05,1.8,1.55,1.55,0,0,1-.92,1.09A4.24,4.24,0,0,1,198.15,7a1.21,1.21,0,0,1-.49-1.09c.17.16.32.32.49.46a2.52,2.52,0,0,0,2.61.31,4.92,4.92,0,0,0,2.17-1.73C203,4.8,203.12,4.7,203.28,4.52Z"/><path class="cls-4" d="M204.13,18.75a1.39,1.39,0,0,1-.61-1.24,3.78,3.78,0,0,1,1.06-2.5A3.32,3.32,0,0,1,206,14a1.46,1.46,0,0,1,1.46.2c.38.28.79.53,1.18.8l0,.09c-.32,0-.64,0-1,0a5,5,0,0,0-2.42.74,2.24,2.24,0,0,0-1.1,2.66A1.54,1.54,0,0,1,204.13,18.75Z"/></g></svg>